A fascinating and human portrayal of a once-famous fighter pilot and loyal Stalinist named Nadezhda Petrovna. Now a 41-year-old provincial schoolmistress, she has so internalized the military ideas of service and obedience that she cannot adjust to life in peacetime. Written by International Film Circuit &lt;ifcplanet@aol.com&gt;

English subs
 
http://www.imdb.com/title/tt0061196/

General 
Unique ID : 173060613427074010952275170975975856289 (0x82324302A8B1CE70815078B763A9D8A1) 
Complete name : Krylya.mkv 
Format : Matroska 
Format version : Version 2 
File size : 1.25 GiB 
Duration : 1h 25mn 
Overall bit rate : 2 102 Kbps 
Encoded date : UTC 2013-05-04 00:37:21 
Writing application : mkvmerge v5.8.0 ('No Sleep / Pillow') built on Sep 2 2012 15:37:04 
Writing library : libebml v1.2.3 + libmatroska v1.3.0 

Video 
ID : 1 
Format : AVC 
Format/Info : Advanced Video Codec 
Format profile : High@L3.1 
Format settings, CABAC : Yes 
Format settings, ReFrames : 11 frames 
Codec ID : V_MPEG4/ISO/AVC 
Duration : 1h 25mn 
Bit rate : 1 868 Kbps 
Width : 664 pixels 
Height : 446 pixels 
Display aspect ratio : 4:3 
Original display aspect ratio : 4:3 
Frame rate mode : Constant 
Frame rate : 23.976 fps 
Color space : YUV 
Chroma subsampling : 4:2:0 
Bit depth : 8 bits 
Scan type : Progressive 
Bits/(Pixel*Frame) : 0.263 
Stream size : 1.11 GiB (89%) 
Writing library : x264 core 129 r2245 bc13772 
Encoding settings : cabac=1 / ref=11 / deblock=1:-3:-3 / analyse=0x3:0x133 / me=umh / subme=11 / psy=1 / psy_rd=1.00:0.10 / mixed_ref=1 / me_range=48 / chroma_me=1 / trellis=2 / 8x8dct=1 / cqm=0 / deadzone=21,11 / fast_pskip=0 / chroma_qp_offset=-3 / threads=12 / lookahead_threads=2 / sliced_threads=0 / nr=0 / decimate=1 / interlaced=0 / bluray_compat=0 / constrained_intra=0 / bframes=16 / b_pyramid=2 / b_adapt=2 / b_bias=0 / direct=3 / weightb=1 / open_gop=0 / weightp=2 / keyint=250 / keyint_min=23 / scenecut=40 / intra_refresh=0 / rc_lookahead=60 / rc=crf / mbtree=1 / crf=16.4 / qcomp=0.70 / qpmin=0 / qpmax=69 / qpstep=4 / ip_ratio=1.40 / aq=2:0.80 
Language : English 
Default : Yes 
Forced : No 

Audio 
ID : 2 
Format : AC-3 
Format/Info : Audio Coding 3 
Mode extension : CM (complete main) 
Format settings, Endianness : Big 
Codec ID : A_AC3 
Duration : 1h 25mn 
Bit rate mode : Constant 
Bit rate : 192 Kbps 
Channel(s) : 1 channel 
Channel positions : Front: C 
Sampling rate : 48.0 KHz 
Bit depth : 16 bits 
Compression mode : Lossy 
Stream size : 117 MiB (9%) 
Default : Yes 
Forced : No 

Text 
ID : 3 
Format : UTF-8 
Codec ID : S_TEXT/UTF8 
Codec ID/Info : UTF-8 Plain Text 
Language : English 
Default : Yes 
Forced : No 

Menu 
00:00:00.000 : en:Expelled 
00:07:14.634 : en:Pasha 
00:10:16.801 : en:The airfield 
00:14:32.968 : en:Out to eat 
00:16:51.368 : en:To the newlyweds 
00:28:37.368 : en:The show must go on 
00:34:28.269 : en:New "initiative"? 
00:39:48.636 : en:Runaways 
00:44:26.803 : en:"Let someone else do it?" 
00:50:10.137 : en:Vostriakov returns 
00:55:32.804 : en:All for nnothing 
01:03:36.804 : en:Mitya 
01:09:11.937 : en:A new life 
01:16:17.304 : en:To the air 

My rip.